name C:\Users\u0101727\Documents\MyRepositories\upper-imu-dc\Results\main_tracking\Case_22\SHRUG01_orientations_groundFrame.mot
datacolumns 13
datarows 21
range 0.71000000 0.91000000
endheader 
time	radius_imu_[0][0]	radius_imu_[0][1]	radius_imu_[0][2]	radius_imu_[1][0]	radius_imu_[1][1]	radius_imu_[1][2]	radius_imu_[2][0]	radius_imu_[2][1]	radius_imu_[2][2]	radius_imu_x	radius_imu_y	radius_imu_z	
          0.71000000	          0.56524707	         -0.11656854	          0.81664407	         -0.18740057	          0.94593685	          0.26473479	         -0.80335346	         -0.30268013	          0.51284302	         -0.47653150	          0.95557211	          0.20337469	
          0.72000000	          0.56067054	         -0.11676257	          0.81976524	         -0.18948989	          0.94564443	          0.26429185	         -0.80606584	         -0.30351788	          0.50806964	         -0.47966746	          0.96100098	          0.20532053	
          0.73000000	          0.55612293	         -0.11699092	          0.82282465	         -0.19171705	          0.94528306	          0.26397822	         -0.80868527	         -0.30455386	          0.50326443	         -0.48307993	          0.96636368	          0.20734541	
          0.74000000	          0.55166120	         -0.11725639	          0.82578500	         -0.19389224	          0.94491670	          0.26370101	         -0.81121867	         -0.30558692	          0.49853878	         -0.48653681	          0.97159266	          0.20943462	
          0.75000000	          0.54745966	         -0.11755223	          0.82853449	         -0.19584720	          0.94459032	          0.26342553	         -0.81359191	         -0.30648101	          0.49410281	         -0.48980609	          0.97648532	          0.21151146	
          0.76000000	          0.54375106	         -0.11786469	          0.83092882	         -0.19744320	          0.94433329	          0.26315551	         -0.81569049	         -0.30715233	          0.49021065	         -0.49266893	          0.98077501	          0.21345991	
          0.77000000	          0.54074845	         -0.11817861	          0.83284148	         -0.19858655	          0.94416102	          0.26291319	         -0.81740718	         -0.30756102	          0.48708493	         -0.49495415	          0.98422158	          0.21516336	
          0.78000000	          0.53856697	         -0.11848181	          0.83421081	         -0.19924599	          0.94407610	          0.26271915	         -0.81868593	         -0.30770501	          0.48484118	         -0.49657717	          0.98670011	          0.21654513	
          0.79000000	          0.53718557	         -0.11876729	          0.83506048	         -0.19945699	          0.94407029	          0.26257988	         -0.81954169	         -0.30761277	          0.48345197	         -0.49755762	          0.98824270	          0.21759140	
          0.80000000	          0.53646807	         -0.11903176	          0.83548396	         -0.19930693	          0.94412803	          0.26248621	         -0.82004802	         -0.30733321	          0.48277069	         -0.49799955	          0.98901291	          0.21834320	
          0.81000000	          0.53622624	         -0.11927192	          0.83560494	         -0.19890731	          0.94423068	          0.26242009	         -0.82030317	         -0.30692448	          0.48259721	         -0.49804466	          0.98923310	          0.21886537	
          0.82000000	          0.53629354	         -0.11948016	          0.83553201	         -0.19836448	          0.94436032	          0.26236447	         -0.82039062	         -0.30644425	          0.48275371	         -0.49781966	          0.98910034	          0.21920874	
          0.83000000	          0.53656724	         -0.11964243	          0.83533304	         -0.19776255	          0.94450195	          0.26230905	         -0.82035698	         -0.30594403	          0.48312801	         -0.49740595	          0.98873832	          0.21938858	
          0.84000000	          0.53701919	         -0.11973863	          0.83502877	         -0.19715950	          0.94464359	          0.26225296	         -0.82020639	         -0.30546873	          0.48368413	         -0.49683409	          0.98818507	          0.21938047	
          0.85000000	          0.53766647	         -0.11974534	          0.83461118	         -0.19659736	          0.94477505	          0.26220141	         -0.81991722	         -0.30505926	          0.48443225	         -0.49610446	          0.98742654	          0.21913664	
          0.86000000	          0.53854237	         -0.11963868	          0.83406157	         -0.19611287	          0.94488641	          0.26216297	         -0.81945827	         -0.30475607	          0.48539868	         -0.49520931	          0.98642952	          0.21860277	
          0.87000000	          0.53966724	         -0.11939757	          0.83336876	         -0.19574615	          0.94496706	          0.26214632	         -0.81880566	         -0.30460051	          0.48659615	         -0.49415324	          0.98517487	          0.21773555	
          0.88000000	          0.54104630	         -0.11900594	          0.83253017	         -0.19553993	          0.94500552	          0.26216159	         -0.81794440	         -0.30463445	          0.48802133	         -0.49295736	          0.98365940	          0.21650757	
          0.89000000	          0.54266772	         -0.11845500	          0.83155286	         -0.19553574	          0.94499020	          0.26221995	         -0.81687057	         -0.30489660	          0.48965349	         -0.49165933	          0.98189756	          0.21491174	
          0.90000000	          0.54451356	         -0.11774473	          0.83044636	         -0.19576552	          0.94491066	          0.26233510	         -0.81558619	         -0.30541779	          0.49146631	         -0.49030536	          0.97990843	          0.21295953	
          0.91000000	          0.54656208	         -0.11688555	          0.82922112	         -0.19624656	          0.94475869	          0.26252294	         -0.81409900	         -0.30621688	          0.49343089	         -0.48894667	          0.97771269	          0.21068240	
